<svg version="1.2" xmlns="http://www.w3.org/2000/svg" viewBox="0 0 840 500" width="200" height="50">
	<title>Nicolepd</title>
	<defs>
		<linearGradient id="g1" x2="1" gradientUnits="userSpaceOnUse" gradientTransform="matrix(768.278,0,0,495.693,38.758,.402)">
			<stop offset="0" stop-color="#05bfbb"/>
			<stop offset="1" stop-color="#004472"/>
		</linearGradient>
	</defs>
	<style>
		tspan { white-space:pre } 
		.s0 { fill: url(#g1) } 
	</style>
	<g id="Calque 2">
		<g id="&lt;Group&gt;">
		</g>
		<g id="&lt;Group&gt;">
		</g>
		<g id="&lt;Group&gt;">
		</g>
		<g id="&lt;Group&gt;">
		</g>
		<g id="&lt;Group&gt;">
			<g id="&lt;Group&gt;">
				<g id="&lt;Group&gt;">
				</g>
			</g>
		</g>
		<g id="&lt;Group&gt;">
		</g>
		<g id="&lt;Group&gt;">
		</g>
		<g id="&lt;Group&gt;">
			<g id="&lt;Group&gt;">
			</g>
		</g>
		<g id="&lt;Group&gt;">
		</g>
		<g id="&lt;Group&gt;">
		</g>
		<g id="&lt;Group&gt;">
			<g id="&lt;Group&gt;">
			</g>
		</g>
		<g id="&lt;Group&gt;">
		</g>
		<g id="&lt;Group&gt;">
			<g id="&lt;Group&gt;">
			</g>
		</g>
		<g id="&lt;Group&gt;">
		</g>
		<g id="&lt;Group&gt;">
		</g>
		<g id="&lt;Group&gt;">
		</g>
		<g id="&lt;Group&gt;">
		</g>
		<g id="&lt;Group&gt;">
		</g>
		<g id="&lt;Group&gt;">
			<g id="&lt;Group&gt;">
				<g id="&lt;Group&gt;">
				</g>
			</g>
		</g>
		<g id="&lt;Group&gt;">
		</g>
		<g id="&lt;Group&gt;">
		</g>
		<g id="&lt;Group&gt;">
		</g>
		<g id="&lt;Group&gt;">
		</g>
		<g id="&lt;Group&gt;">
		</g>
		<g id="&lt;Group&gt;">
			<g id="&lt;Group&gt;">
			</g>
		</g>
		<g id="&lt;Group&gt;">
		</g>
		<g id="&lt;Group&gt;">
			<g id="&lt;Group&gt;">
			</g>
		</g>
		<g id="&lt;Group&gt;">
		</g>
		<g id="&lt;Group&gt;">
		</g>
		<g id="&lt;Group&gt;">
		</g>
		<g id="&lt;Group&gt;">
		</g>
		<g id="&lt;Group&gt;">
		</g>
		<g id="&lt;Group&gt;">
		</g>
		<g id="&lt;Group&gt;">
		</g>
		<g id="&lt;Group&gt;">
			<path id="&lt;Path&gt;" fill-rule="evenodd" class="s0" d="m38.8 0.4c95 90.4 187.5 178.4 283.2 269.5 0-88.4 0-172.9 0-261.4 29.2 16.2 55.5 29.8 80.6 45.2 11.3 7 18.8 6.2 29.5-1.2 90.3-62.3 220.1-51.2 299.2 24.9 1.8 1.7 3.2 3.7 3.9 4.6-22.8 22.5-45.1 44.6-68.6 67.9-39.6-35.7-87.1-49.7-141.2-33.9-40.4 11.9-69.3 38.5-87.8 75.6-36.7 74.1 0.1 166.4 77.3 196.4 68.2 26.4 158.2-9.1 177.6-72.6-38.4 4.8-76.4-8-113.6 10.5-27 13.4-60.2 1-76.9-24.3-17.2-26.2-13.5-60 9-81.9 21.4-21 56.3-25.5 80.3-7.5 12.6 9.4 24.9 11.6 39.6 11.5 51-0.5 101.9-0.2 152.9-0.2 6.7 0 13.4 0 21.7 0 5.4 56.1-3.3 107.4-31.9 153.8-75.7 123.1-231.7 156.6-348.4 71.8-89.9-65.2-176-135.6-263.8-203.7-7.8-6.1-15.6-12.1-26.4-20.4 0 88.4 0 173.6 0 259.9-33 0-63.9 0-96.2 0 0-159.7 0-319.6 0-484.5z"/>
		</g>
	</g>
</svg>