<?xml version="1.0" encoding="UTF-8"?>
<svg id="Calque_2" xmlns="http://www.w3.org/2000/svg" xmlns:xlink="http://www.w3.org/1999/xlink" viewBox="0 0 1445.64 812.78" width="200" >
<defs>
<style>.cls-1{fill:url(#Nouvelle_nuance_de_dégradé_1);stroke-width:0px;}</style>
<linearGradient id="Nouvelle_nuance_de_dégradé_1" x1="387.32" y1="420.69" x2="1085.65" y2="420.69" gradientUnits="userSpaceOnUse">
<stop offset="0" stop-color="#d47f32"/><stop offset=".2" stop-color="#9e4658"/><stop offset=".4" stop-color="#893066"/><stop offset=".6" stop-color="#6a2175"/><stop offset=".8" stop-color="#370b8f"/><stop offset="1" stop-color="#20037d"/></linearGradient></defs>
<path class="cls-1" d="M387.32,195.4v440.43h87.5v-236.25c9.77,7.54,16.88,12.99,23.95,18.48,79.82,61.91,158.13,125.9,239.82,185.22,106.08,77.03,247.87,46.64,316.69-65.26,25.94-42.17,33.88-88.8,29-139.84-7.57,0-13.65,0-19.73,0-46.34,0-92.69-.24-139.03.15-13.3.11-24.52-1.84-35.99-10.45-21.79-16.35-53.49-12.24-73.01,6.83-20.44,19.96-23.79,50.68-8.12,74.46,15.14,22.97,45.38,34.3,69.9,22.11,33.82-16.8,68.34-5.15,103.25-9.53-17.66,57.73-99.46,90-161.43,65.94-70.2-27.25-103.61-111.17-70.23-178.46,16.75-33.76,43.04-57.96,79.8-68.72,49.17-14.39,92.36-1.67,128.28,30.76,21.41-21.16,41.7-41.21,62.43-61.7-.69-.82-1.97-2.64-3.55-4.16-71.96-69.16-189.91-79.25-271.99-22.66-9.76,6.73-16.51,7.42-26.79,1.11-22.84-14.02-46.73-26.35-73.28-41.08v237.6c-87-82.78-171.09-162.79-257.47-244.97Z"/><path class="cls-1" d="M387.32,195.4c86.38,82.18,170.47,162.2,257.47,244.97v-237.6c26.55,14.73,50.43,27.06,73.28,41.08,10.28,6.31,17.03,5.62,26.79-1.11,82.08-56.59,200.03-46.5,271.99,22.66,1.57,1.51,2.85,3.34,3.55,4.16-20.74,20.49-41.02,40.54-62.43,61.7-35.91-32.43-79.1-45.15-128.28-30.76-36.76,10.76-63.05,34.96-79.8,68.72-33.38,67.29.03,151.21,70.23,178.46,61.97,24.06,143.78-8.21,161.43-65.94-34.91,4.37-69.44-7.28-103.25,9.53-24.52,12.18-54.77.86-69.9-22.11-15.67-23.78-12.32-54.5,8.12-74.46,19.52-19.07,51.22-23.18,73.01-6.83,11.47,8.61,22.69,10.56,35.99,10.45,46.34-.39,92.69-.15,139.03-.15,6.08,0,12.16,0,19.73,0,4.88,51.03-3.06,97.67-29,139.84-68.83,111.91-210.62,142.3-316.69,65.26-81.7-59.33-160-123.31-239.82-185.22-7.08-5.49-14.18-10.94-23.95-18.48v236.25h-87.5V195.4Z"/>
</svg>